<svg width="96" height="96" xmlns="http://www.w3.org/2000/svg" xmlns:xlink="http://www.w3.org/1999/xlink" xml:space="preserve" overflow="hidden"><defs><clipPath id="clip0"><rect x="165" y="214" width="96" height="96"/></clipPath></defs><g clip-path="url(#clip0)" transform="translate(-165 -214)"><path d="M246.168 234.817C245.559 234.817 243.535 234.736 241.845 234.583 241.202 234.526 240.57 234.387 239.963 234.168 239.551 229.503 235.616 225.943 230.933 226 225.946 226.099 221.965 230.188 222 235.176L222 249C222 252.866 218.866 256 215 256L190.7 256C188.999 253.053 185.915 251.173 182.515 251.013 182.422 251.013 182.329 251.006 182.237 251.006 179.467 250.886 177.124 253.034 177.004 255.804 176.911 257.952 178.196 259.921 180.2 260.7 180.077 261.123 180.01 261.56 180 262 179.973 264.734 182.167 266.973 184.902 267 184.934 267 184.967 267 185 267 187.112 273.903 192.216 279.49 198.9 282.216 201.718 283.327 204.724 283.881 207.753 283.848 207.839 283.848 207.925 283.848 208.012 283.848L208.012 290 207.066 290C206.673 289.99 206.308 290.202 206.12 290.547 205.886 291.009 206.043 291.573 206.482 291.847L214.482 296.847C214.844 297.073 215.31 297.045 215.642 296.776 215.861 296.591 215.994 296.326 216.012 296.04L216.237 293.44 218.553 291.84C218.844 291.648 219.017 291.32 219.012 290.971 218.997 290.43 218.553 289.999 218.012 289.999L210.012 289.999 210.012 283.8C211.368 283.721 212.71 283.486 214.012 283.1L215.412 282.645C215.612 282.579 215.812 282.499 216.018 282.428L216.018 285 215.072 285C214.679 284.99 214.314 285.202 214.126 285.547 213.892 286.009 214.049 286.573 214.488 286.847L222.488 291.847C222.85 292.073 223.316 292.045 223.648 291.776 223.867 291.591 224 291.326 224.018 291.04L224.243 288.44 226.559 286.84C226.85 286.648 227.023 286.32 227.018 285.971 227.003 285.43 226.56 284.999 226.018 284.999L218.018 284.999 218.018 281.638C221.1 280.294 223.854 278.3 226.093 275.792 229.921 271.424 232.022 265.808 232 260L232 243.9C234.62 243.607 236.979 242.182 238.458 240L239.758 240C242.1 240.154 244.4 239.32 246.098 237.7 246.49 237.272 246.815 236.789 247.064 236.265L247.79 234.816ZM214.77 292C214.775 292 214.78 292.005 214.78 292.01 214.78 292.013 214.779 292.016 214.776 292.018 214.729 292.051 214.661 292.099 214.644 292.113 214.434 292.284 214.301 292.533 214.278 292.803L214.151 294.27C214.151 294.279 214.143 294.282 214.135 294.278L210.521 292.019C210.505 292.008 210.507 292 210.526 292ZM222.77 287C222.775 286.999 222.78 287.003 222.781 287.009 222.781 287.012 222.78 287.016 222.777 287.018 222.729 287.05 222.639 287.118 222.613 287.139 222.421 287.309 222.301 287.547 222.278 287.803L222.151 289.27C222.151 289.279 222.143 289.282 222.135 289.278L218.521 287.019C218.505 287.008 218.507 287 218.526 287ZM231.783 241.914 230.004 242.114 230.004 260C230.093 269.527 223.895 277.973 214.78 280.746L213.413 281.191C212.27 281.529 211.093 281.735 209.903 281.804L208.403 281.842C208.184 281.842 207.964 281.85 207.745 281.85 204.974 281.885 202.223 281.38 199.645 280.365 193.534 277.848 188.864 272.734 186.911 266.42L186.479 265 185.162 265C183.577 265.007 182.232 263.84 182.016 262.27 181.977 261.904 182.018 261.534 182.137 261.185L182.553 259.522 180.973 258.856C179.643 258.335 178.84 256.973 179.028 255.556 179.32 254.03 180.682 252.946 182.235 253.005 182.294 253.005 182.353 253.005 182.412 253.01 185.127 253.14 187.591 254.637 188.958 256.986L189.533 258 215 258C219.971 258 224 253.971 224 249L224 235.141C223.971 231.285 227.029 228.113 230.883 228 234.735 227.917 237.926 230.973 238.009 234.825 238.087 238.445 235.383 241.523 231.783 241.912ZM239.756 238 239.477 238C239.682 237.427 239.827 236.835 239.91 236.233 240.481 236.399 241.065 236.513 241.656 236.574 242.482 236.65 243.372 236.707 244.156 236.748 244.172 236.748 244.174 236.757 244.162 236.766 242.876 237.665 241.322 238.1 239.756 238Z" stroke="#C39E56" fill="#C39E56"/><path d="M234.567 232.436C235.151 233.019 235.148 233.968 234.561 234.556 233.973 235.143 233.024 235.146 232.441 234.563 231.857 233.98 231.86 233.03 232.447 232.443 233.035 231.856 233.984 231.852 234.567 232.436Z" stroke="#C39E56" fill="#C39E56"/></g></svg>