<svg width="96" height="96" xmlns="http://www.w3.org/2000/svg" xmlns:xlink="http://www.w3.org/1999/xlink" xml:space="preserve" overflow="hidden"><defs><clipPath id="clip0"><rect x="453" y="214" width="96" height="96"/></clipPath></defs><g clip-path="url(#clip0)" transform="translate(-453 -214)"><path d="M524.817 255.687C531.471 255.687 536.883 251.177 536.883 245.633 536.883 240.089 531.471 235.579 524.817 235.579 518.163 235.579 512.751 240.089 512.751 245.633 512.751 251.177 518.164 255.687 524.817 255.687ZM524.817 237.579C529.547 237.579 533.517 240.207 534.588 243.731 534.588 243.744 534.588 243.75 534.573 243.743L531.973 242.23C530.627 241.405 528.867 241.827 528.041 243.173 527.216 244.519 527.638 246.279 528.984 247.104 529.022 247.128 529.061 247.15 529.1 247.172L533.477 249.721C529.357 254.504 522.14 255.04 517.357 250.92 516.921 250.545 516.514 250.137 516.14 249.7L520.305 247.176C521.67 246.381 522.132 244.631 521.337 243.266 520.542 241.901 518.792 241.439 517.427 242.234L515.081 243.685C515.068 243.693 515.061 243.685 515.066 243.673 516.166 240.176 520.115 237.579 524.817 237.579ZM531.992 244.668C532.085 245.366 531.594 246.007 530.896 246.1 530.785 246.114 530.674 246.114 530.563 246.1 530.003 245.999 529.564 245.561 529.463 245 529.372 244.302 529.863 243.662 530.562 243.57 530.671 243.556 530.782 243.556 530.892 243.57 531.452 243.671 531.89 244.109 531.992 244.668ZM517.514 245C517.422 244.302 517.914 243.662 518.612 243.57 518.722 243.556 518.833 243.556 518.943 243.57 519.503 243.671 519.942 244.11 520.043 244.67 520.135 245.368 519.643 246.008 518.945 246.1 518.834 246.115 518.723 246.115 518.612 246.1 518.052 245.999 517.614 245.56 517.514 245Z" stroke="#C39E56" fill="#C39E56"/><path d="M527.223 247.539C527.223 248.605 526.146 249.469 524.817 249.469 523.488 249.469 522.411 248.605 522.411 247.539 522.411 246.473 523.488 245.609 524.817 245.609 526.146 245.609 527.223 246.473 527.223 247.539Z" stroke="#C39E56" fill="#C39E56"/><path d="M520.311 250.116C519.864 249.973 519.385 250.219 519.242 250.666 519.099 251.113 519.345 251.592 519.792 251.735 521.413 252.258 523.116 252.479 524.817 252.388 526.518 252.479 528.222 252.258 529.843 251.735 530.29 251.591 530.536 251.113 530.393 250.665 530.249 250.218 529.77 249.972 529.323 250.116 527.87 250.585 526.341 250.779 524.817 250.688 523.292 250.779 521.764 250.585 520.311 250.116Z" stroke="#C39E56" fill="#C39E56"/><path d="M518.509 259.734C520.833 259.614 523.095 259.599 525.009 259.599L526.519 259.599C528.665 259.605 530.792 259.187 532.776 258.369L547.006 257.008 547.006 255 536.669 255.988C539.664 253.426 541.367 249.666 541.319 245.725 541.319 237.551 534.449 230.925 524.635 230.925 513.835 230.925 514.005 233.918 502.062 233.918 494.828 233.918 492.209 230 479.805 230 476.477 230 473.208 230.881 470.33 232.553 464.213 235.928 459.005 242.372 459.005 249.464L459.005 260.081 462.5 257.673C462.66 258.091 462.828 258.497 463.009 258.89L463.009 263.032 455.009 263.797 455.009 265.816 463.009 265.042 463.009 273.071 455.009 273.787 455.009 275.851 463.009 275.086 463.009 283.086C463.01 285.4 464.344 287.507 466.435 288.499 465.65 289.982 464.467 291.216 463.02 292.065 462.505 292.361 462.327 293.019 462.623 293.534 462.806 293.854 463.141 294.057 463.509 294.073 463.663 294.081 463.818 294.086 463.973 294.086 467.846 294.084 471.285 291.612 472.522 287.942 474.083 286.817 475.009 285.01 475.009 283.086L475.009 273.938 478.009 273.652 478.009 283.081C478.009 284.922 478.858 286.661 480.309 287.794 479.549 289.583 478.232 291.079 476.555 292.06 476.04 292.356 475.862 293.014 476.158 293.529 476.341 293.849 476.676 294.052 477.044 294.068 477.198 294.076 477.353 294.081 477.508 294.081 481.029 294.08 484.227 292.032 485.702 288.835 488.257 288.086 490.012 285.743 490.014 283.081L490.014 272.5 502.014 271.353 502.014 283.081C502.015 285.395 503.349 287.502 505.44 288.494 504.655 289.977 503.472 291.211 502.025 292.06 501.51 292.356 501.332 293.014 501.628 293.529 501.811 293.849 502.146 294.052 502.514 294.068 502.668 294.076 502.823 294.081 502.978 294.081 506.851 294.079 510.29 291.607 511.527 287.937 513.088 286.812 514.014 285.005 514.014 283.081L514.014 270.21 517.014 269.923 517.014 283.081C517.015 285.395 518.349 287.502 520.44 288.494 519.655 289.977 518.472 291.211 517.025 292.06 516.51 292.356 516.332 293.014 516.628 293.529 516.812 293.849 517.146 294.052 517.514 294.068 517.668 294.076 517.823 294.081 517.978 294.081 521.851 294.079 525.291 291.607 526.527 287.937 528.088 286.812 529.014 285.005 529.014 283.081L529.014 268.781 547.014 267.06 547.014 264.99 514.014 268.204 514.014 260.164ZM520.826 291.453C521.447 290.724 521.968 289.914 522.375 289.047 522.833 289.098 523.295 289.092 523.751 289.029 523.022 290.094 522.014 290.938 520.838 291.469 520.815 291.479 520.81 291.472 520.826 291.453ZM527.005 283.081C527.006 285.29 525.215 287.082 523.006 287.082 522.973 287.082 522.939 287.082 522.905 287.081 520.729 286.975 519.017 285.186 519.005 283.008L519.005 269.732 527.005 268.967ZM466.826 291.453C467.447 290.724 467.968 289.914 468.375 289.047 468.833 289.098 469.295 289.092 469.751 289.029 469.022 290.094 468.014 290.938 466.838 291.469 466.815 291.479 466.81 291.472 466.826 291.453ZM480.356 291.453C481.05 290.641 481.621 289.731 482.05 288.753 482.444 288.89 482.852 288.985 483.266 289.036 482.541 290.099 481.538 290.942 480.366 291.474 480.345 291.479 480.34 291.472 480.356 291.453ZM488.005 283.081C488.006 285.29 486.215 287.082 484.006 287.082 483.973 287.082 483.939 287.082 483.905 287.081 481.729 286.975 480.017 285.186 480.005 283.008L480.005 273.46 488.005 272.696ZM475.005 271.929 475.005 265.629C478.875 266.4 482.8 266.859 486.743 267 491.659 267 497.71 264.709 502.005 262.9L502.005 269.345ZM505.826 291.453C506.447 290.724 506.968 289.914 507.375 289.047 507.833 289.098 508.295 289.092 508.751 289.029 508.022 290.094 507.014 290.938 505.838 291.469 505.815 291.479 505.81 291.472 505.826 291.453ZM512.005 260.124 512.005 283.006C511.993 285.184 510.28 286.973 508.105 287.079 505.896 287.134 504.061 285.389 504.006 283.18 504.005 283.146 504.005 283.113 504.005 283.079L504.005 259.034C504.002 258.502 503.599 258.056 503.07 258 502.519 257.964 502.043 258.382 502.007 258.933 502.006 258.955 502.005 258.978 502.005 259L502.005 260.733 501.23 261.059C497.207 262.751 491.328 265 486.743 265 482.931 264.857 479.135 264.413 475.393 263.671L475.005 263.594 475.005 262.034C475.002 261.502 474.599 261.056 474.07 261 473.519 260.964 473.043 261.382 473.007 261.933 473.006 261.955 473.005 261.978 473.005 262L473.005 283.006C472.993 285.184 471.28 286.973 469.105 287.079 466.897 287.134 465.061 285.389 465.006 283.18 465.005 283.146 465.005 283.113 465.005 283.079L465.005 258.45 464.821 258.05C464.671 257.727 464.521 257.368 464.363 256.956L463.452 254.583 461.36 256.027 461.005 256.272 461.005 249.464C461.005 242.914 466.174 237.131 471.332 234.284 473.907 232.792 476.829 232.004 479.805 232 484.46 231.929 489.09 232.692 493.475 234.253 496.221 235.293 499.125 235.856 502.061 235.918 506.268 236.016 510.465 235.47 514.507 234.3 517.793 233.328 521.208 232.865 524.634 232.928 533.005 232.928 539.318 238.428 539.318 245.728 539.318 252.498 533.818 257.603 526.518 257.603L525.008 257.603C521.334 257.551 517.661 257.723 514.008 258.118L514.008 257.038C514.007 256.503 513.602 256.055 513.07 256 512.519 255.964 512.043 256.382 512.007 256.933 512.006 256.955 512.005 256.978 512.005 257L512.005 260.124Z" stroke="#C39E56" fill="#C39E56"/></g></svg>