<svg width="96" height="96" xmlns="http://www.w3.org/2000/svg" xmlns:xlink="http://www.w3.org/1999/xlink" xml:space="preserve" overflow="hidden"><defs><clipPath id="clip0"><rect x="745" y="212" width="96" height="96"/></clipPath></defs><g clip-path="url(#clip0)" transform="translate(-745 -212)"><path d="M820.582 223.559C818.285 222.697 815.846 222.275 813.393 222.314 812.002 222.311 810.614 222.435 809.247 222.686 806.645 220.853 803.521 219.91 800.341 219.995 799.651 219.996 798.963 220.034 798.277 220.109 792.974 220.688 786.454 224 786.454 232.466L786.356 238.264C786.311 241.921 784.204 245.238 780.913 246.832 771.195 251.471 763.731 259.798 760.179 269.964 759.789 271.007 760.319 272.168 761.362 272.557 761.905 272.759 762.509 272.718 763.019 272.445L775.602 265.844 778.493 264.434C777.118 271.605 776.247 278.864 775.887 286.158 775.64 291.735 770.443 294.142 766.346 297.003 765.601 297.526 765.421 298.555 765.945 299.299 766.253 299.739 766.757 300 767.294 300L809.929 300 809.929 299C809.929 296.239 807.69 294 804.929 294L799.704 294C800.419 293.368 801.095 292.694 801.729 291.98 810.323 282.26 815.877 268.588 815.877 257.149 815.877 250.567 813.163 246.03 810.768 242.027 807.936 237.292 805.89 233.867 809.028 228.767 814.816 227.82 819.419 225.685 820.582 223.559ZM774.603 298 768.47 298C768.46 298 768.449 297.992 768.458 297.986 768.91 297.687 769.076 297.578 769.399 297.367 773.258 294.844 777.631 291.984 777.885 286.246 778.243 279.018 779.108 271.825 780.475 264.718L780.786 263.207 782.565 262.258C783.052 262.01 783.264 261.428 783.05 260.926 782.817 260.426 782.222 260.209 781.721 260.443 781.705 260.451 781.689 260.459 781.673 260.467L781.311 260.66 762.059 270.702C762.046 270.708 762.04 270.704 762.044 270.691 762.18 270.322 762.404 269.685 762.575 269.249 766.124 260.267 772.912 252.942 781.599 248.722 785.648 246.812 788.265 242.774 788.355 238.298L788.454 232.466C788.454 223.863 796.139 222.354 798.495 222.097 799.108 222.03 799.724 221.996 800.341 221.996 802.773 221.949 805.174 222.56 807.287 223.765 806.831 224.369 806.541 225.083 806.446 225.834 806.367 226.424 806.4 227.024 806.544 227.601L806.474 228.734C806.384 229.799 805.589 230.671 804.537 230.859 803.465 231.087 802.434 231.478 801.48 232.016 801.003 232.307 800.479 232.514 799.933 232.631 799.837 232.645 799.74 232.653 799.643 232.654 799.259 232.654 799.059 232.495 798.472 230.806 798.216 229.902 797.802 229.051 797.247 228.294 796.582 227.451 795.569 226.956 794.495 226.949 792.75 227.083 791.19 228.093 790.354 229.631 789.307 231.08 789.068 232.961 789.72 234.626 790.392 236.048 791.933 237.001 793.717 238.104 795.796 239.389 798.152 240.846 799.217 243.034 800.479 245.625 803.163 252.742 800.836 262.855 799.347 269.328 793.597 281.547 788.943 289.756 786.07 294.836 780.693 297.983 774.857 298ZM804.929 296C806.2 296.001 807.332 296.802 807.758 298L793.445 298C794.724 297.442 795.951 296.773 797.113 296ZM809.052 243.054C811.314 246.835 813.877 251.12 813.877 257.149 813.877 268.128 808.52 281.28 800.231 290.656 796.086 295.331 790.137 298.005 783.89 298L783.119 298C786.295 296.371 788.925 293.848 790.684 290.742 795.639 282.002 801.288 269.813 802.786 263.303 805.123 253.146 802.696 245.607 801.016 242.158 798.784 237.575 792.554 235.939 791.529 233.771 790.705 232.029 792.727 228.949 794.497 228.949 794.974 228.955 795.42 229.184 795.704 229.566 796.871 230.981 796.75 234.654 799.643 234.654 799.838 234.653 800.032 234.638 800.224 234.609 801.927 234.359 802.841 233.232 804.924 232.821 805.129 232.778 805.331 232.721 805.528 232.651 805.115 236.447 807.037 239.686 809.052 243.054ZM809.081 224.751 809.615 224.652C810.861 224.423 812.126 224.31 813.393 224.315 814.346 224.313 815.299 224.376 816.245 224.503 816.263 224.505 816.265 224.514 816.248 224.522 813.768 225.682 811.128 226.464 808.417 226.84 808.314 226.079 808.558 225.313 809.081 224.751Z" stroke="#C39E56" fill="#C39E56"/><path d="M804.146 224.436C804.729 225.019 804.726 225.969 804.139 226.556 803.551 227.144 802.602 227.147 802.019 226.564 801.435 225.981 801.438 225.031 802.026 224.444 802.613 223.856 803.562 223.853 804.146 224.436Z" stroke="#C39E56" fill="#C39E56"/></g></svg>